<svg xmlns="http://www.w3.org/2000/svg" width="256" height="256" viewBox="0 0 24 24" fill="#14b5a4"><path fill="#14b5a4" d="M12 0C5.373 0 0 5.373 0 12c0 6.628 5.373 12 12 12c6.628 0 12-5.372 12-12c0-6.627-5.372-12-12-12m0 1.113c6.003 0 10.887 4.884 10.887 10.887S18.003 22.887 12 22.887S1.113 18.003 1.113 12S5.997 1.113 12 1.113m7.03 5.201c-.536-.002-1.28.304-2.255 1.098a536.576 536.576 0 0 1-3.814 3.045l1.025 1.3c4.694-2.558 6.19-3.167 6.116-4.294c-.042-.634-.384-1.146-1.073-1.149Zm-.507.752c.147 0 .266.106.266.239c0 .132-.119.238-.266.238c-.146 0-.265-.106-.265-.238c0-.171.162-.239.265-.239m-1.58 1.489c0 .131-.118.238-.265.238c-.147 0-.264-.107-.264-.238c0-.128.11-.234.24-.24c.13-.006.29.077.29.24zm-2.109 1.01c.147 0 .266.106.266.238s-.12.238-.266.238c-.146 0-.266-.106-.266-.238c0-.148.139-.239.266-.239zm-2.445.972c-1.502.225-5.807.992-8.01 2.672l3.574 5.387s4.706-2.932 5.863-6.244z"/></svg>